<svg width="174" height="116" viewBox="0 0 174 116" fill="none" xmlns="http://www.w3.org/2000/svg">
<g filter="url(#filter0_d)">
<rect x="38.833" y="17.4601" width="104.709" height="64.42" rx="1.68185" transform="rotate(7.96537 38.833 17.4601)" fill="#FFBFBA"/>
</g>
<g filter="url(#filter1_d)">
<rect x="34.126" y="23.5309" width="104.731" height="64.42" rx="1.68185" transform="rotate(0.985114 34.126 23.5309)" fill="#FE5244"/>
<circle cx="117.098" cy="38.9428" r="5.68979" transform="rotate(0.985114 117.098 38.9428)" fill="#FDECE6"/>
<g style="mix-blend-mode:multiply">
<circle cx="125.39" cy="39.0849" r="5.68979" transform="rotate(0.985114 125.39 39.0849)" fill="#F98B83"/>
</g>
<rect x="44.2227" y="75.7881" width="43.5896" height="2.31449" rx="0.560616" transform="rotate(0.985114 44.2227 75.7881)" fill="#F98B83"/>
<rect x="44.9316" y="34.5189" width="14.8513" height="14.8513" rx="0.560616" transform="rotate(0.985114 44.9316 34.5189)" fill="#F98B83"/>
</g>
<path d="M169.703 106.626C169.225 106.792 168.791 107.065 168.433 107.423C168.075 107.782 167.803 108.217 167.637 108.696L167.009 110.506C167.004 110.52 166.996 110.532 166.984 110.541C166.973 110.549 166.959 110.554 166.944 110.554C166.93 110.554 166.916 110.549 166.904 110.541C166.893 110.532 166.884 110.52 166.88 110.506L166.253 108.696C166.087 108.217 165.815 107.781 165.457 107.423C165.098 107.064 164.664 106.792 164.185 106.626L162.379 105.997C162.366 105.992 162.354 105.984 162.346 105.972C162.338 105.961 162.334 105.947 162.334 105.933C162.334 105.919 162.338 105.906 162.346 105.894C162.354 105.883 162.366 105.874 162.379 105.87L164.185 105.241C164.664 105.075 165.098 104.802 165.457 104.444C165.815 104.085 166.087 103.65 166.253 103.171L166.88 101.361C166.884 101.347 166.893 101.335 166.904 101.326C166.916 101.317 166.93 101.312 166.944 101.312C166.959 101.312 166.973 101.317 166.984 101.326C166.996 101.335 167.004 101.347 167.009 101.361L167.637 103.171C167.803 103.65 168.075 104.085 168.433 104.443C168.791 104.802 169.225 105.075 169.703 105.241L171.511 105.87C171.524 105.874 171.536 105.883 171.544 105.894C171.552 105.906 171.556 105.919 171.556 105.933C171.556 105.947 171.552 105.961 171.544 105.972C171.536 105.984 171.524 105.992 171.511 105.997L169.703 106.626Z" fill="#F3B7B2"/>
<path d="M171.161 93.6654C170.564 93.8734 170.021 94.2143 169.573 94.6624C169.126 95.1106 168.786 95.6544 168.578 96.2531L167.793 98.5159C167.788 98.5327 167.777 98.5473 167.763 98.5577C167.748 98.568 167.731 98.5736 167.714 98.5736C167.696 98.5736 167.679 98.568 167.664 98.5577C167.65 98.5473 167.639 98.5327 167.634 98.5159L166.849 96.2531C166.641 95.6544 166.301 95.1105 165.854 94.6623C165.406 94.2142 164.863 93.8733 164.265 93.6654L162.006 92.8794C161.99 92.8737 161.976 92.863 161.966 92.8488C161.956 92.8345 161.95 92.8175 161.95 92.8001C161.95 92.7827 161.956 92.7657 161.966 92.7515C161.976 92.7373 161.99 92.7265 162.006 92.7208L164.265 91.9348C164.863 91.7268 165.406 91.3861 165.854 90.9379C166.301 90.4898 166.641 89.9459 166.849 89.3472L167.634 87.0843C167.639 87.0675 167.65 87.0529 167.664 87.0425C167.679 87.0322 167.696 87.0266 167.714 87.0266C167.731 87.0266 167.748 87.0322 167.763 87.0425C167.777 87.0529 167.788 87.0675 167.793 87.0843L168.578 89.3472C168.786 89.9459 169.126 90.4897 169.573 90.9378C170.021 91.386 170.564 91.7268 171.161 91.9348L173.42 92.7208C173.437 92.7265 173.451 92.7373 173.461 92.7515C173.471 92.7657 173.477 92.7827 173.477 92.8001C173.477 92.8175 173.471 92.8345 173.461 92.8488C173.451 92.863 173.437 92.8737 173.42 92.8794L171.161 93.6654Z" fill="#F3B7B2"/>
<path d="M161.229 100.725C160.399 101.014 159.645 101.487 159.024 102.11C158.403 102.732 157.93 103.488 157.642 104.319L156.551 107.462C156.543 107.485 156.529 107.505 156.509 107.519C156.489 107.533 156.465 107.541 156.441 107.541C156.417 107.541 156.393 107.533 156.373 107.519C156.353 107.505 156.339 107.485 156.331 107.462L155.24 104.319C154.952 103.488 154.479 102.732 153.858 102.11C153.237 101.487 152.483 101.014 151.653 100.725L148.515 99.6334C148.492 99.6255 148.472 99.6106 148.458 99.5908C148.444 99.5711 148.437 99.5475 148.437 99.5233C148.437 99.4991 148.444 99.4755 148.458 99.4558C148.472 99.436 148.492 99.4211 148.515 99.4132L151.653 98.3215C152.483 98.0326 153.237 97.5592 153.858 96.9368C154.479 96.3143 154.952 95.559 155.24 94.7275L156.331 91.5847C156.339 91.5616 156.353 91.5416 156.373 91.5274C156.393 91.5132 156.417 91.5055 156.441 91.5055C156.465 91.5055 156.489 91.5132 156.509 91.5274C156.529 91.5416 156.543 91.5616 156.551 91.5847L157.642 94.7275C157.93 95.559 158.403 96.3143 159.024 96.9368C159.645 97.5592 160.399 98.0326 161.229 98.3215L164.367 99.4132C164.39 99.4211 164.41 99.436 164.424 99.4558C164.438 99.4755 164.445 99.4991 164.445 99.5233C164.445 99.5475 164.438 99.5711 164.424 99.5908C164.41 99.6106 164.39 99.6255 164.367 99.6334L161.229 100.725Z" fill="#F3B7B2"/>
<path d="M19.0083 24.5176C18.581 24.6664 18.1928 24.9101 17.873 25.2306C17.5531 25.551 17.3098 25.9398 17.1614 26.3679L16.6 27.9859C16.5964 27.9983 16.5888 28.0092 16.5784 28.017C16.5681 28.0248 16.5555 28.0289 16.5425 28.0289C16.5296 28.0289 16.517 28.0248 16.5067 28.017C16.4963 28.0092 16.4887 27.9983 16.4851 27.9859L15.9251 26.3679C15.7765 25.9397 15.533 25.5508 15.2129 25.2303C14.8928 24.9099 14.5043 24.6662 14.0767 24.5176L12.4622 23.9556C12.4504 23.9515 12.4402 23.9438 12.433 23.9337C12.4258 23.9235 12.4219 23.9113 12.4219 23.8989C12.4219 23.8864 12.4258 23.8742 12.433 23.8641C12.4402 23.8539 12.4504 23.8462 12.4622 23.8422L14.0767 23.2801C14.5043 23.1315 14.8928 22.8879 15.2129 22.5675C15.533 22.247 15.7765 21.858 15.9251 21.4298L16.4851 19.8118C16.4887 19.7994 16.4963 19.7885 16.5067 19.7807C16.517 19.773 16.5296 19.7688 16.5425 19.7688C16.5555 19.7688 16.5681 19.773 16.5784 19.7807C16.5888 19.7885 16.5964 19.7994 16.6 19.8118L17.1614 21.4298C17.3098 21.8579 17.5531 22.2467 17.873 22.5672C18.1928 22.8876 18.581 23.1314 19.0083 23.2801L20.6243 23.8422C20.636 23.8462 20.6462 23.8539 20.6535 23.8641C20.6607 23.8742 20.6646 23.8864 20.6646 23.8989C20.6646 23.9113 20.6607 23.9235 20.6535 23.9337C20.6462 23.9438 20.636 23.9515 20.6243 23.9556L19.0083 24.5176Z" fill="#F3B7B2"/>
<path d="M20.3111 12.9338C19.7768 13.1197 19.2916 13.4243 18.8917 13.8249C18.4918 14.2255 18.1877 14.7115 18.0021 15.2466L17.3006 17.2692C17.2957 17.2842 17.2861 17.2972 17.2734 17.3065C17.2606 17.3157 17.2452 17.3208 17.2294 17.3208C17.2137 17.3208 17.1983 17.3157 17.1855 17.3065C17.1727 17.2972 17.1632 17.2842 17.1583 17.2692L16.4568 15.2466C16.2712 14.7115 15.967 14.2254 15.5671 13.8248C15.1671 13.4243 14.6818 13.1196 14.1475 12.9338L12.1284 12.2312C12.1137 12.2261 12.101 12.2165 12.092 12.2038C12.083 12.1911 12.0781 12.1759 12.0781 12.1603C12.0781 12.1448 12.083 12.1296 12.092 12.1169C12.101 12.1042 12.1137 12.0946 12.1284 12.0895L14.1475 11.3869C14.6818 11.2011 15.1671 10.8965 15.5671 10.4959C15.967 10.0954 16.2712 9.60927 16.4568 9.07414L17.1583 7.0516C17.1632 7.03659 17.1727 7.02349 17.1855 7.01422C17.1983 7.00496 17.2137 7 17.2294 7C17.2452 7 17.2606 7.00496 17.2734 7.01422C17.2861 7.02349 17.2957 7.03659 17.3006 7.0516L18.0021 9.07414C18.1877 9.60924 18.4918 10.0953 18.8917 10.4959C19.2916 10.8964 19.7768 11.201 20.3111 11.3869L22.3302 12.0895C22.3449 12.0946 22.3576 12.1042 22.3666 12.1169C22.3756 12.1296 22.3805 12.1448 22.3805 12.1603C22.3805 12.1759 22.3756 12.1911 22.3666 12.2038C22.3576 12.2165 22.3449 12.2261 22.3302 12.2312L20.3111 12.9338Z" fill="#F3B7B2"/>
<path d="M11.4343 19.244C10.6923 19.5023 10.0184 19.9254 9.46303 20.4817C8.90766 21.0381 8.48528 21.7132 8.22758 22.4564L7.25292 25.2654C7.24594 25.2861 7.23268 25.3039 7.215 25.3166C7.19733 25.3293 7.17613 25.3362 7.15438 25.3362C7.13264 25.3362 7.11144 25.3293 7.09376 25.3166C7.07609 25.3039 7.06283 25.2861 7.05585 25.2654L6.08119 22.4564C5.82349 21.7132 5.40111 21.0381 4.84574 20.4817C4.29037 19.9254 3.61643 19.5023 2.87448 19.244L0.0698443 18.2683C0.049442 18.2612 0.0317558 18.2479 0.0192401 18.2302C0.00672444 18.2126 0 18.1915 0 18.1699C0 18.1482 0.00672444 18.1271 0.0192401 18.1095C0.0317558 18.0919 0.049442 18.0785 0.0698443 18.0714L2.87448 17.0957C3.61643 16.8375 4.29037 16.4144 4.84574 15.858C5.40111 15.3017 5.82349 14.6265 6.08119 13.8834L7.05585 11.0743C7.06283 11.0537 7.07609 11.0358 7.09376 11.0231C7.11144 11.0104 7.13264 11.0035 7.15438 11.0035C7.17613 11.0035 7.19733 11.0104 7.215 11.0231C7.23268 11.0358 7.24594 11.0537 7.25292 11.0743L8.22758 13.8834C8.48528 14.6265 8.90766 15.3017 9.46303 15.858C10.0184 16.4144 10.6923 16.8375 11.4343 17.0957L14.2389 18.0714C14.2593 18.0785 14.277 18.0919 14.2895 18.1095C14.302 18.1271 14.3088 18.1482 14.3088 18.1699C14.3088 18.1915 14.302 18.2126 14.2895 18.2302C14.277 18.2479 14.2593 18.2612 14.2389 18.2683L11.4343 19.244Z" fill="#F3B7B2"/>
<defs>
<filter id="filter0_d" x="11.9546" y="0.991488" width="149.271" height="114.954" filterUnits="userSpaceOnUse" color-interpolation-filters="sRGB">
<feFlood flood-opacity="0" result="BackgroundImageFix"/>
<feColorMatrix in="SourceAlpha" type="matrix" values="0 0 0 0 0 0 0 0 0 0 0 0 0 0 0 0 0 0 127 0"/>
<feOffset dx="0.370784" dy="1.85392"/>
<feGaussianBlur stdDeviation="9.26959"/>
<feColorMatrix type="matrix" values="0 0 0 0 0.208333 0 0 0 0 0.208333 0 0 0 0 0.208333 0 0 0 0.13 0"/>
<feBlend mode="normal" in2="BackgroundImageFix" result="effect1_dropShadow"/>
<feBlend mode="normal" in="SourceGraphic" in2="effect1_dropShadow" result="shape"/>
</filter>
<filter id="filter1_d" x="14.8785" y="6.8743" width="142.844" height="103.232" filterUnits="userSpaceOnUse" color-interpolation-filters="sRGB">
<feFlood flood-opacity="0" result="BackgroundImageFix"/>
<feColorMatrix in="SourceAlpha" type="matrix" values="0 0 0 0 0 0 0 0 0 0 0 0 0 0 0 0 0 0 127 0"/>
<feOffset dx="0.370784" dy="1.85392"/>
<feGaussianBlur stdDeviation="9.2696"/>
<feColorMatrix type="matrix" values="0 0 0 0 0.208333 0 0 0 0 0.208333 0 0 0 0 0.208333 0 0 0 0.13 0"/>
<feBlend mode="normal" in2="BackgroundImageFix" result="effect1_dropShadow"/>
<feBlend mode="normal" in="SourceGraphic" in2="effect1_dropShadow" result="shape"/>
</filter>
</defs>
</svg>
